<svg xmlns="http://www.w3.org/2000/svg" viewBox="0 0 900 1600"><rect width="900" height="1600" fill="#070707"/><g transform="translate(450 720)" stroke="#d8d8d5" fill="none"><circle r="120" stroke-width="18"/><circle r="38" fill="#d8d8d5"/><g stroke-width="6"><path d="M0-600V-155M0 155V600M-600 0H-155M155 0H600M-424-424L-110-110M110 110L424 424M424-424L110-110M-110 110L-424 424"/><path d="M-230-554L-61-148M61 148L230 554M230-554L61-148M-61 148L-230 554M-554-230L-148-61M148 61L554 230M-554 230L-148 61M148-61L554-230"/></g></g><text x="45" y="80" fill="#777" font-family="monospace" font-size="20" letter-spacing="7">AXIØM PRESENTS</text><text x="45" y="1520" fill="#eee" font-family="serif" font-size="72" letter-spacing="12">BLACK SUN</text></svg>
